<svg width="32" height="32" viewBox="0 0 32 32" fill="none" xmlns="http://www.w3.org/2000/svg">
  <defs>
    <linearGradient id="faviconGradient" x1="0%" y1="0%" x2="100%" y2="100%">
      <stop offset="0%" style="stop-color:#3B82F6;stop-opacity:1" />
      <stop offset="100%" style="stop-color:#8B5CF6;stop-opacity:1" />
    </linearGradient>
  </defs>

  <!-- Background -->
  <rect width="32" height="32" rx="6" fill="url(#faviconGradient)"/>

  <!-- Activity log icon -->
  <g transform="translate(6, 6)">
    <!-- Document base -->
    <path d="M3 1a1.5 1.5 0 00-1.5 1.5v17A1.5 1.5 0 003 21h14a1.5 1.5 0 001.5-1.5V6.414a1.5 1.5 0 00-.439-1.06L15.646 2.939A1.5 1.5 0 0014.586 2.5H3z"
          fill="white" fill-opacity="0.95"/>

    <!-- Activity dots and lines -->
    <circle cx="5" cy="7" r="1" fill="url(#faviconGradient)"/>
    <line x1="7.5" y1="7" x2="13" y2="7" stroke="url(#faviconGradient)" stroke-width="1.2" stroke-linecap="round"/>

    <circle cx="5" cy="11" r="1" fill="url(#faviconGradient)"/>
    <line x1="7.5" y1="11" x2="12" y2="11" stroke="url(#faviconGradient)" stroke-width="1.2" stroke-linecap="round"/>

    <circle cx="5" cy="15" r="1" fill="url(#faviconGradient)"/>
    <line x1="7.5" y1="15" x2="11" y2="15" stroke="url(#faviconGradient)" stroke-width="1.2" stroke-linecap="round"/>
  </g>
</svg>
